Coordinates
version=1
nRows=6
nColumns=36
inDegrees=yes

Units are S.I. units (second, meters, Newtons, ...)
If the header above contains a line with 'inDegrees', this indicates whether rotational values are in degrees (yes) or radians (no).

endheader
time	pelvis_tilt	pelvis_list	pelvis_rotation	pelvis_tx	pelvis_ty	pelvis_tz	hip_flexion_r	hip_adduction_r	hip_rotation_r	knee_angle_r	knee_angle_r_beta	ankle_angle_r	subtalar_angle_r	mtp_angle_r	hip_flexion_l	hip_adduction_l	hip_rotation_l	knee_angle_l	knee_angle_l_beta	ankle_angle_l	subtalar_angle_l	mtp_angle_l	lumbar_extension	lumbar_bending	lumbar_rotation	arm_flex_r	arm_add_r	arm_rot_r	elbow_flex_r	pro_sup_r	arm_flex_l	arm_add_l	arm_rot_l	elbow_flex_l	pro_sup_l
      3.01666670	    -16.16644030	     -2.78828609	     -6.71141662	      1.70738897	      1.20103825	      0.07772540	     15.13772318	     -1.99974191	    -21.54025304	      0.45223062	      0.00789291	    -31.75734394	      5.05163104	     -7.49999987	     13.52296787	     -9.40301998	    -16.09102890	      0.28656984	      0.00500159	    -24.12522025	      4.07672635	     -7.49999987	      2.39517894	     -1.15117723	     -1.37742825	     87.71487038	    -61.18457152	     67.11048701	    138.75482197	     75.85286993	    100.60985677	    -31.08489177	     69.76568590	    123.72688363	     79.23814444
      3.03333330	    -16.20844811	     -2.54123494	     -6.54551424	      1.70854096	      1.23919022	      0.07963288	     15.68209436	     -2.23286896	    -22.46483520	      0.25822322	      0.00450685	    -34.54920444	      6.48895844	     -7.49999987	     13.38026897	     -8.87357862	    -17.01176810	      0.17151330	      0.00299347	    -26.41220514	      5.15550536	     -7.49999987	      3.10271437	     -1.02716911	     -1.87670127	     86.91915831	    -60.06882072	     68.59566680	    137.49931983	     74.46641608	     99.84712698	    -30.73316848	     70.80272288	    122.30493506	     77.90796971
      3.05000000	    -15.97929037	     -2.27071824	     -6.66635335	      1.70851685	      1.26788856	      0.07781580	     15.97376058	     -2.41086220	    -22.08718545	      0.23737556	      0.00414299	    -37.44287963	      6.98739002	     -7.49999987	     12.51489852	     -7.98792971	    -17.52159985	      0.15749142	      0.00274874	    -29.43395897	      5.51626456	     -7.49999987	      3.23740960	     -0.51585531	     -3.26027783	     88.46375688	    -56.69252914	     72.40423499	    135.43351891	     71.02129838	     99.32188411	    -32.48289566	     72.36366685	    123.23798371	     76.76107340
      3.06666670	    -15.58588963	     -1.73252203	     -6.90136468	      1.71271603	      1.28947182	      0.07555258	     16.06182640	     -2.95163455	    -21.62652415	      0.22317040	      0.00389506	    -40.18967379	      7.99877466	     -7.49999987	     11.49913654	     -6.72445472	    -17.74444510	      0.19762449	      0.00344920	    -33.21308720	      5.36021996	     -7.49999987	      3.53083399	     -0.53666168	     -3.71240174	     88.15463506	    -54.87102351	     74.37231971	    135.36293029	     62.80437131	     98.72875901	    -33.75114250	     73.32400625	    125.04884783	     75.96522319
      3.08333330	    -15.00971939	     -1.24560791	     -7.58885332	      1.71458729	      1.30510666	      0.07612620	     15.86110259	     -3.31308227	    -20.45940904	      0.24759335	      0.00432132	    -42.38102497	      8.48616794	     -7.49999987	     10.14424840	     -5.60522151	    -17.27379278	      0.41277416	      0.00720427	    -36.65775438	      4.80211048	     -7.49999987	      2.83194445	     -0.35651746	     -5.57235803	     90.54860375	    -51.35875481	     76.79377399	    134.51439142	     63.08987516	     99.36552626	    -33.36794276	     72.51949490	    125.22268454	     75.00433314
      3.10000000	    -14.57144107	     -0.99537322	     -7.80124998	      1.71705176	      1.32912222	      0.07604414	     15.71606983	     -3.63834263	    -19.14826454	      0.35114097	      0.00612857	    -44.41851609	      8.82257225	     -7.49999987	      9.39585959	     -4.74782300	    -16.10829366	      1.67357449	      0.02920939	    -38.81728289	      4.58934383	     -7.49999987	      2.26090049	     -0.14015486	     -8.29814540	     90.65420828	    -47.28193154	     77.92317515	    133.11277453	     63.60003732	     98.48808767	    -34.35078834	     71.31179199	    126.08659672	     74.24085363
